# This file uses centimeters as units for non-parametric coordinates.

v 0.221081 1.231951 -0.141027
v 0.024199 1.387988 -0.140999
v -0.080231 1.443654 -0.140980
v -0.080285 1.376932 -0.140998
v -0.168179 1.392707 -0.140980
v -0.096931 1.283379 -0.141035
v -0.210638 1.194900 -0.141025
v -0.293911 1.077990 -0.140980
v -0.257295 0.955420 -0.141265
v -0.199737 0.863636 -0.141449
v -0.134757 0.954849 -0.141462
v -0.197060 0.797702 -0.143175
v -0.244566 0.768875 -0.141571
v -0.290487 0.756885 -0.141136
v -0.417769 0.786798 -0.140980
v -0.509006 0.810443 -0.140980
v -0.625314 0.708298 -0.140992
v -0.732002 0.820238 -0.140980
v -0.789064 0.798397 -0.140986
v -0.862547 0.742241 -0.140980
v -0.778844 0.683435 -0.140984
v -0.805090 0.485994 -0.140986
v -0.702151 0.553486 -0.140988
v -0.606043 0.434533 -0.140980
v -0.535553 0.564607 -0.141015
v -0.320658 0.437359 -0.141067
v -0.299373 0.199862 -0.140980
v -0.290046 0.103949 -0.140980
v -0.230251 0.086526 -0.141012
v 0.338285 1.086096 -0.140980
v 0.296566 0.973181 -0.140980
v 0.232771 0.846247 -0.140980
v 0.265082 0.782854 -0.141235
v 0.200455 0.772643 -0.141160
v 0.265658 0.746294 -0.141121
v 0.528644 0.803264 -0.140980
v 0.735291 0.785601 -0.140980
v 0.843721 0.485238 -0.140980
v 0.438035 0.408756 -0.140980
v 0.297940 0.183014 -0.141015
v 0.342099 0.101388 -0.140980
v -0.044614 -0.367034 -0.141082
v 0.057145 -0.320961 -0.141417
v 0.155155 -0.328810 -0.141337
v 0.110473 -0.442316 -0.140980
v 0.232929 -0.400803 -0.141667
v 0.209555 -0.648144 -0.144375
v 0.300317 -0.631342 -0.143948
v 0.244910 -0.711084 -0.143366
v 0.297460 -0.707623 -0.146643
v 0.288835 -0.769602 -0.153402
v 0.355779 -0.718467 -0.145857
v 0.363474 -0.836925 -0.145552
v 0.443369 -0.755754 -0.143035
v 0.525299 -0.786221 -0.141459
v 0.541752 -0.484681 -0.140980
v 0.453623 -0.313204 -0.141107
v 0.358333 -0.169200 -0.140980
v 0.321190 -0.097705 -0.141105
v 0.290400 -0.117990 -0.141114
v 0.327312 -0.003130 -0.140980
v 0.173493 -0.084598 -0.141175
v 0.054359 -0.156197 -0.141218
v -0.041065 -0.087083 -0.141130
v -0.114456 0.057298 -0.141071
v -0.199948 -0.008379 -0.141029
v -0.145909 -0.120409 -0.141069
v -0.245073 -0.206343 -0.141017
v -0.288494 -0.103140 -0.140980
v -0.311655 -0.290721 -0.141000
v -0.242950 -0.318299 -0.141020
v -0.330970 -0.388827 -0.141003
v -0.145187 -0.290688 -0.141058
v -0.111688 -0.384086 -0.141035
v -0.044211 -0.223729 -0.141162
v 0.135896 -0.228422 -0.141295
v 0.239328 -0.251544 -0.141326
v 0.348103 -0.242565 -0.141172
v 0.339317 -0.357618 -0.141525
v 0.224678 -0.529349 -0.142534
v 0.433294 -0.442412 -0.141575
v 0.328625 -0.495179 -0.142301
v 0.441217 -0.609550 -0.142560
v 0.523857 -0.705125 -0.141803
v -0.101916 -0.533415 -0.141011
v -0.075085 -0.463706 -0.140980
v -0.181866 -0.414915 -0.141021
v -0.251633 -0.633034 -0.141097
v -0.372599 -0.622773 -0.141191
v -0.480098 -0.631791 -0.141145
v -0.544353 -0.593294 -0.140980
v -0.438415 -0.386865 -0.140980
v -0.265271 -0.525384 -0.141040
v -0.487246 -0.482670 -0.140980
v -0.440543 -0.736599 -0.141593
v -0.380722 -0.801758 -0.142233
v -0.310803 -0.727159 -0.141293
v -0.178821 -0.687802 -0.140980
v -0.130670 -0.602053 -0.140980
v -0.231425 -0.083931 -0.141015
v -0.199984 0.147805 -0.141033
v 0.272404 0.109688 -0.141034
v 0.184535 0.131536 -0.141081
v 0.131274 0.319071 -0.141098
v 0.012464 0.184780 -0.141096
v -0.015603 0.345620 -0.141131
v -0.155856 0.247533 -0.141070
v -0.131370 0.405946 -0.141156
v -0.221656 0.510430 -0.141217
v -0.117066 0.494464 -0.141237
v -0.083684 0.587143 -0.141364
v -0.031559 0.474328 -0.141212
v 0.076941 0.570725 -0.141231
v 0.081422 0.442057 -0.141152
v 0.246051 0.500535 -0.141088
v 0.359825 0.466802 -0.141026
v 0.342668 0.410032 -0.141022
v 0.412544 0.547881 -0.141014
v 0.516045 0.601334 -0.140993
v 0.510448 0.508572 -0.140990
v 0.628355 0.561056 -0.140984
v 0.746196 0.560018 -0.140981
v 0.727923 0.446154 -0.140980
v 0.639126 0.692163 -0.140982
v 0.744957 0.687348 -0.140981
v 0.840228 0.586143 -0.140980
v 0.789517 0.519388 -0.140980
v 0.617662 0.824344 -0.140980
v 0.565530 0.695903 -0.140985
v 0.463346 0.693258 -0.140994
v 0.354059 0.655906 -0.141028
v 0.246810 0.674904 -0.141110
v 0.176193 0.608068 -0.141164
v 0.134965 0.686098 -0.141228
v 0.015193 0.696830 -0.141406
v -0.190787 0.634953 -0.141462
v -0.116862 0.728253 -0.141786
v -0.237664 0.719432 -0.141658
v -0.294073 0.629500 -0.141287
v -0.329814 0.719845 -0.141191
v -0.395389 0.661567 -0.141104
v -0.452324 0.611886 -0.141057
v -0.489226 0.690600 -0.141021
v -0.389130 0.530768 -0.141088
v -0.246485 0.363295 -0.141071
v -0.252050 0.275658 -0.141025
v -0.109642 0.846358 -0.141906
v -0.160298 0.865638 -0.141998
v -0.014400 0.815338 -0.141531
v 0.094189 0.793404 -0.141297
v 0.065201 0.910809 -0.141304
v 0.163708 0.878688 -0.141152
v 0.228606 0.942375 -0.141042
v 0.161018 1.006637 -0.141129
v 0.253705 1.024004 -0.141034
v 0.244048 1.111725 -0.141042
v 0.021172 1.054412 -0.141227
v -0.204744 1.025045 -0.141214
v -0.133018 1.111919 -0.141150
v -0.034483 0.916357 -0.141486
v -0.011323 1.192848 -0.141106
v 0.046112 1.297097 -0.141040
v 0.106047 1.217430 -0.141080
v 0.150674 1.124433 -0.141101
v 0.278766 0.309897 -0.141038
v 0.265041 0.022815 -0.141060
v 0.044889 0.007622 -0.141128
v 0.339523 1.197224 -0.140980
v -0.287015 1.188570 -0.140980
v -0.343502 0.764887 -0.140980
v -0.630420 0.835276 -0.140980
v -0.882593 0.615766 -0.140980
v -0.705974 0.451920 -0.140980
v -0.484685 0.422678 -0.140980
v -0.408703 0.408108 -0.140980
v -0.337317 0.374194 -0.140980
v -0.306489 0.291941 -0.140980
v -0.858236 0.545615 -0.140980
v 0.263866 0.925487 -0.140980
v 0.350281 0.754771 -0.140980
v 0.405319 0.764080 -0.140980
v 0.461280 0.784440 -0.140980
v 0.737416 0.836360 -0.140980
v 0.841126 0.794352 -0.140980
v 0.911673 0.695109 -0.140980
v 0.933623 0.611519 -0.140980
v 0.911907 0.544378 -0.140980
v 0.647714 0.434176 -0.140980
v 0.557258 0.423831 -0.140980
v 0.390660 0.364168 -0.140980
v 0.351598 0.184655 -0.140980
v 0.358234 0.260923 -0.140980
v 0.166166 -0.558305 -0.141930
v 0.450588 -0.878238 -0.140980
v 0.537582 -0.856677 -0.140980
v 0.589738 -0.790872 -0.140980
v 0.606659 -0.730658 -0.140980
v 0.602742 -0.643440 -0.140980
v 0.495228 -0.394237 -0.140980
v 0.407616 -0.245834 -0.140980
v -0.555751 -0.723619 -0.140980
v -0.528180 -0.794230 -0.138978
v -0.455644 -0.854861 -0.145332
v -0.383759 -0.854219 -0.141969
v -0.312863 -0.835952 -0.140980
v -0.238439 -0.772194 -0.140980
v -0.389389 -0.302928 -0.140980
v -0.349892 -0.237209 -0.140980
v -0.277703 0.018621 -0.140980
v -0.242317 1.312641 -0.140980
v 0.037632 1.468182 -0.140980
v 0.134536 1.442834 -0.140980
v 0.208563 1.403834 -0.140980
v 0.277628 1.337057 -0.140980
vn 0.000178 0.000353 -1.000000
vn 0.000373 0.000250 -1.000000
vn 0.000452 0.000281 -1.000000
vn 0.000004 0.000238 -1.000000
vn 0.000074 0.000199 -1.000000
vn -0.000000 0.000318 -1.000000
vn -0.000082 0.000267 -1.000000
vn -0.000095 0.000342 -1.000000
vn -0.000205 0.000329 -1.000000
vn -0.000230 0.000506 -1.000000
vn -0.000415 0.000270 -1.000000
vn -0.000679 0.000362 -1.000000
vn -0.001182 0.001073 -0.999999
vn -0.000600 0.000128 -1.000000
vn -0.010412 0.012230 -0.999871
vn -0.001575 0.001605 -0.999997
vn -0.001669 0.003521 -0.999992
vn -0.004873 0.002968 -0.999984
vn -0.004741 0.013546 -0.999897
vn -0.002421 0.002677 -0.999994
vn -0.000224 0.001762 -0.999998
vn -0.000413 0.004559 -0.999990
vn -0.000048 0.000018 -1.000000
vn -0.000037 -0.000002 -1.000000
vn -0.000029 0.000001 -1.000000
vn -0.000066 -0.000034 -1.000000
vn -0.000009 -0.000011 -1.000000
vn 0.000013 -0.000084 -1.000000
vn -0.000063 -0.000178 -1.000000
vn -0.000793 -0.000559 -1.000000
vn -0.000843 -0.000958 -0.999999
vn -0.000495 -0.000952 -0.999999
vn -0.000747 -0.000316 -1.000000
vn -0.000959 -0.000306 -0.999999
vn -0.000805 -0.000662 -0.999999
vn -0.000922 -0.000902 -0.999999
vn -0.000564 -0.000048 -1.000000
vn -0.000564 -0.000068 -1.000000
vn -0.000626 -0.000110 -1.000000
vn 0.001084 -0.000488 -0.999999
vn 0.001440 -0.000383 -0.999999
vn 0.000929 -0.000152 -1.000000
vn 0.001419 -0.000753 -0.999999
vn 0.001275 0.000792 -0.999999
vn 0.001900 0.000318 -0.999998
vn 0.000699 0.000183 -1.000000
vn -0.000112 -0.001006 -0.999999
vn 0.000003 -0.000005 -1.000000
vn 0.000006 -0.000007 -1.000000
vn 0.000006 -0.000002 -1.000000
vn 0.000004 -0.000002 -1.000000
vn 0.000004 -0.000000 -1.000000
vn 0.000553 -0.000136 -1.000000
vn 0.000505 -0.000263 -1.000000
vn 0.000565 -0.000305 -1.000000
vn -0.006095 0.001358 -0.999980
vn -0.000574 -0.000185 -1.000000
vn -0.001220 -0.000222 -0.999999
vn -0.002653 0.003879 -0.999989
vn -0.003451 0.007026 -0.999969
vn -0.015396 0.010282 -0.999829
vn -0.006473 0.010384 -0.999925
vn -0.003383 0.017701 -0.999838
vn -0.042498 0.047841 -0.997950
vn -0.020429 0.073573 -0.997081
vn 0.024027 0.075646 -0.996845
vn 0.038860 0.028667 -0.998833
vn 0.062153 -0.003355 -0.998061
vn 0.025958 -0.004547 -0.999653
vn 0.020222 -0.012198 -0.999721
vn 0.008686 -0.001892 -0.999961
vn 0.007169 -0.003816 -0.999967
vn 0.009282 -0.006358 -0.999937
vn 0.004330 -0.006054 -0.999972
vn 0.011919 -0.000689 -0.999929
vn 0.000230 0.000085 -1.000000
vn 0.002666 0.001026 -0.999996
vn 0.001211 0.000827 -0.999999
vn 0.000728 0.000619 -1.000000
vn 0.000291 0.000697 -1.000000
vn 0.000941 0.000313 -1.000000
vn -0.000444 0.000766 -1.000000
vn -0.000167 0.000349 -1.000000
vn -0.000567 0.000277 -1.000000
vn -0.000442 0.000044 -1.000000
vn -0.000622 0.000072 -1.000000
vn -0.000618 0.000004 -1.000000
vn -0.000586 0.000042 -1.000000
vn -0.000640 0.000064 -1.000000
vn -0.000457 0.000062 -1.000000
vn -0.000569 0.000113 -1.000000
vn -0.000298 0.000091 -1.000000
vn -0.000282 -0.000032 -1.000000
vn -0.000203 0.000103 -1.000000
vn -0.000258 0.000127 -1.000000
vn -0.000502 -0.000230 -1.000000
vn -0.001245 0.000087 -0.999999
vn 0.000101 0.000785 -1.000000
vn 0.000203 0.001599 -0.999999
vn 0.002572 0.002577 -0.999993
vn 0.001634 0.003734 -0.999992
vn 0.002257 0.007785 -0.999967
vn 0.005513 0.004474 -0.999975
vn 0.011680 0.007537 -0.999903
vn 0.010213 0.001732 -0.999946
vn 0.008481 0.004629 -0.999953
vn 0.000020 -0.000097 -1.000000
vn -0.000263 -0.000576 -1.000000
vn 0.000280 -0.000076 -1.000000
vn 0.000240 0.000386 -1.000000
vn 0.000040 -0.000440 -1.000000
vn 0.001169 0.000574 -0.999999
vn 0.000437 0.001833 -0.999998
vn -0.000585 0.000778 -1.000000
vn -0.002151 0.001734 -0.999996
vn -0.002202 0.000613 -0.999997
vn -0.000214 0.000117 -1.000000
vn -0.006491 0.007935 -0.999947
vn -0.032055 0.003391 -0.999480
vn -0.005470 -0.009742 -0.999938
vn 0.000699 -0.000176 -1.000000
vn 0.002101 -0.000678 -0.999998
vn 0.004157 0.001062 -0.999991
vn 0.020296 0.004651 -0.999783
vn -0.000568 -0.000094 -1.000000
vn -0.000053 -0.000035 -1.000000
vn 0.000391 0.000154 -1.000000
vn 0.000049 -0.000429 -1.000000
vn 0.000283 -0.000175 -1.000000
vn -0.000422 -0.000280 -1.000000
vn -0.000234 -0.000724 -1.000000
vn -0.000672 -0.001178 -0.999999
vn 0.000415 -0.001739 -0.999998
vn -0.000165 -0.001097 -0.999999
vn 0.000232 -0.000856 -1.000000
vn 0.000772 -0.000649 -1.000000
vn 0.000576 -0.000198 -1.000000
vn 0.000391 -0.000481 -1.000000
vn 0.000474 -0.000188 -1.000000
vn 0.000317 -0.000056 -1.000000
vn 0.000128 0.000013 -1.000000
vn 0.000112 -0.000100 -1.000000
vn 0.000042 -0.000016 -1.000000
vn 0.000009 -0.000016 -1.000000
vn 0.000014 -0.000006 -1.000000
vn 0.000030 0.000016 -1.000000
vn 0.000010 0.000007 -1.000000
vn 0.000010 0.000023 -1.000000
vn 0.000057 0.000040 -1.000000
vn 0.000009 0.000098 -1.000000
vn 0.000100 0.000131 -1.000000
vn 0.000402 0.000228 -1.000000
vn 0.000971 -0.000133 -1.000000
vn 0.000872 -0.000252 -1.000000
vn 0.001176 -0.000269 -0.999999
vn 0.001794 -0.000859 -0.999998
vn 0.003326 -0.004495 -0.999984
vn -0.000890 -0.002523 -0.999996
vn -0.007691 -0.003131 -0.999966
vn -0.002114 -0.001106 -0.999997
vn -0.001268 0.000271 -0.999999
vn -0.000664 0.000016 -1.000000
vn -0.000393 0.000303 -1.000000
vn -0.000323 -0.000096 -1.000000
vn -0.000095 0.000094 -1.000000
vn 0.005941 0.003507 -0.999976
vn -0.020845 -0.001142 -0.999782
vn 0.001680 0.000105 -0.999999
vn 0.002813 0.000083 -0.999996
vn 0.001712 0.000638 -0.999998
vn 0.001091 0.000238 -0.999999
vn 0.000689 0.000128 -1.000000
vn 0.000608 0.001026 -0.999999
vn 0.000648 0.000365 -1.000000
vn -0.000706 0.001246 -0.999999
vn -0.001530 0.001941 -0.999997
vn 0.002003 0.001877 -0.999996
vn -0.000053 0.000736 -1.000000
vn 0.000002 0.000541 -1.000000
vn 0.000279 0.000544 -1.000000
vn 0.000885 -0.001777 -0.999998
vn 0.000659 -0.000040 -1.000000
vn 0.000681 0.000135 -1.000000
vn 0.000868 -0.000007 -1.000000
vn 0.003406 0.003203 -0.999989
vn 0.004036 0.003196 -0.999987
vn 0.007308 0.002971 -0.999969
vn -0.001191 -0.000619 -0.999999
vn 0.000653 -0.000108 -1.000000
vn 0.000306 -0.000233 -1.000000
vn 0.000036 -0.000074 -1.000000
vn 0.000004 -0.000030 -1.000000
vn 0.000005 0.000001 -1.000000
vn 0.000001 0.000007 -1.000000
vn -0.000051 0.000159 -1.000000
vn 0.000015 0.000333 -1.000000
vn 0.001124 -0.000674 -0.999999
vn 0.000734 -0.000116 -1.000000
vn 0.000526 0.000136 -1.000000
vn -0.000055 -0.000011 -1.000000
vn 0.000026 -0.000020 -1.000000
vn 0.000013 0.000047 -1.000000
vn -0.000019 0.000262 -1.000000
vn -0.005658 0.003747 -0.999977
vn 0.000003 0.000101 -1.000000
vn -0.000266 -0.000529 -1.000000
vn 0.000001 0.000006 -1.000000
vn 0.000003 0.000006 -1.000000
vn 0.004163 0.019948 -0.999792
vn 0.031144 -0.006840 -0.999491
vn 0.011618 -0.004023 -0.999924
vn 0.002762 -0.002530 -0.999993
vn -0.000364 0.000154 -1.000000
vn 0.000664 -0.000067 -1.000000
f 213//1 214//2 1//3
f 211//4 212//5 2//6
f 3//7 211//4 2//6
f 3//7 2//6 4//8
f 5//9 3//7 4//8
f 4//8 6//10 5//9
f 210//11 5//9 6//10
f 210//11 6//10 7//12
f 7//12 8//13 169//14
f 10//15 9//16 11//17
f 12//18 10//15 148//19
f 140//20 15//21 170//22
f 178//23 172//24 21//25
f 178//23 21//25 23//26
f 22//27 23//26 173//28
f 173//28 23//26 24//29
f 144//30 26//31 175//32
f 146//33 177//34 145//35
f 145//35 177//34 176//36
f 29//37 28//38 27//39
f 31//40 153//41 155//42
f 153//41 31//40 179//43
f 153//41 179//43 32//44
f 152//45 32//44 34//46
f 32//44 33//47 34//46
f 38//48 127//49 126//50
f 38//48 126//50 187//51
f 187//51 126//50 186//52
f 165//53 117//54 190//55
f 45//56 43//57 44//58
f 45//56 44//58 46//59
f 47//60 193//61 80//62
f 47//60 80//62 48//63
f 49//64 47//60 48//63
f 49//64 48//63 50//65
f 51//66 49//64 50//65
f 51//66 50//65 52//67
f 53//68 52//67 54//69
f 53//68 54//69 194//70
f 197//71 196//72 55//73
f 55//73 196//72 195//74
f 197//71 55//73 84//75
f 59//76 58//77 60//78
f 59//76 60//78 61//79
f 60//78 62//80 166//81
f 60//78 166//81 61//79
f 62//80 63//82 167//83
f 167//83 63//82 64//84
f 65//85 167//83 64//84
f 100//86 209//87 66//88
f 209//87 29//37 66//88
f 100//86 66//88 67//89
f 100//86 67//89 68//90
f 100//86 68//90 69//91
f 70//92 68//90 71//93
f 70//92 71//93 72//94
f 70//92 72//94 207//95
f 71//93 68//90 73//96
f 73//96 67//89 75//97
f 75//97 63//82 43//57
f 43//57 63//82 76//98
f 77//99 78//100 79//101
f 46//59 77//99 79//101
f 82//102 80//62 46//59
f 82//102 46//59 79//101
f 81//103 82//102 79//101
f 81//103 83//104 82//102
f 83//104 198//105 84//75
f 54//69 83//104 84//75
f 83//104 56//106 198//105
f 48//63 82//102 83//104
f 48//63 80//62 82//102
f 44//58 76//98 77//99
f 44//58 77//99 46//59
f 87//107 73//96 74//108
f 85//109 93//110 87//107
f 85//109 87//107 86//111
f 74//108 86//111 87//107
f 88//112 89//113 93//110
f 94//114 93//110 89//113
f 94//114 89//113 90//115
f 90//115 91//116 94//114
f 72//94 87//107 93//110
f 72//94 93//110 94//114
f 92//117 207//95 72//94
f 92//117 72//94 94//114
f 95//118 202//119 201//120
f 99//121 98//122 88//112
f 97//123 96//124 95//118
f 95//118 201//120 90//115
f 95//118 90//115 89//113
f 97//123 95//118 89//113
f 97//123 89//113 88//112
f 97//123 88//112 98//122
f 99//121 88//112 93//110
f 99//121 93//110 85//109
f 87//107 71//93 73//96
f 72//94 71//93 87//107
f 68//90 67//89 73//96
f 66//88 29//37 65//85
f 101//125 65//85 29//37
f 101//125 29//37 27//39
f 105//126 103//127 167//83
f 105//126 106//128 104//129
f 105//126 104//129 103//127
f 107//130 108//131 106//128
f 107//130 106//128 105//126
f 107//130 145//35 108//131
f 145//35 109//132 108//131
f 111//133 110//134 109//132
f 110//134 111//133 112//135
f 113//136 115//137 114//138
f 113//136 114//138 112//135
f 113//136 112//135 111//133
f 115//137 116//139 117//54
f 116//139 115//137 118//140
f 118//140 119//141 120//142
f 120//142 119//141 121//143
f 123//144 121//143 122//145
f 121//143 124//146 125//147
f 121//143 125//147 122//145
f 122//145 125//147 126//50
f 122//145 126//50 127//49
f 124//146 128//148 125//147
f 129//149 36//150 128//148
f 129//149 128//148 124//146
f 121//143 129//149 124//146
f 119//141 130//151 129//149
f 119//141 129//149 121//143
f 118//140 131//152 130//151
f 118//140 130//151 119//141
f 115//137 132//153 131//152
f 115//137 131//152 118//140
f 133//154 134//155 132//153
f 133//154 132//153 115//137
f 113//136 111//133 135//156
f 113//136 135//156 134//155
f 113//136 134//155 133//154
f 111//133 137//157 135//156
f 111//133 136//158 137//157
f 136//158 138//159 137//157
f 139//160 140//20 138//159
f 139//160 138//159 136//158
f 141//161 140//20 139//160
f 142//162 143//163 141//161
f 25//164 143//163 142//162
f 17//165 143//163 25//164
f 23//26 21//25 17//165
f 23//26 17//165 25//164
f 142//162 141//161 144//30
f 144//30 141//161 139//160
f 144//30 139//160 109//132
f 109//132 139//160 136//158
f 12//18 147//166 137//157
f 12//18 137//157 138//159
f 12//18 138//159 13//167
f 11//17 147//166 148//19
f 150//168 149//169 151//170
f 150//168 151//170 152//45
f 153//41 152//45 154//171
f 153//41 154//171 155//42
f 155//42 154//171 156//172
f 157//173 164//174 154//171
f 157//173 11//17 159//175
f 11//17 158//176 159//175
f 158//176 8//13 159//175
f 11//17 157//173 160//177
f 161//178 162//179 163//180
f 162//179 2//6 213//1
f 6//10 2//6 162//179
f 6//10 162//179 161//178
f 157//173 159//175 161//178
f 157//173 161//178 163//180
f 160//177 157//173 151//170
f 163//180 164//174 157//173
f 156//172 154//171 164//174
f 156//172 164//174 1//3
f 151//170 157//173 154//171
f 151//170 154//171 152//45
f 149//169 160//177 151//170
f 147//166 160//177 149//169
f 11//17 160//177 147//166
f 111//133 109//132 136//158
f 137//157 147//166 149//169
f 137//157 149//169 135//156
f 135//156 149//169 150//168
f 135//156 150//168 134//155
f 34//46 35//181 132//153
f 34//46 132//153 134//155
f 34//46 134//155 150//168
f 165//53 115//137 117//54
f 104//129 115//137 165//53
f 113//136 133//154 115//137
f 101//125 107//130 65//85
f 107//130 27//39 146//33
f 107//130 146//33 145//35
f 108//131 109//132 110//134
f 108//131 110//134 112//135
f 108//131 112//135 106//128
f 106//128 112//135 114//138
f 106//128 114//138 104//129
f 104//129 114//138 115//137
f 103//127 104//129 165//53
f 103//127 165//53 40//182
f 102//183 103//127 40//182
f 102//183 40//182 41//184
f 102//183 41//184 166//81
f 102//183 166//81 103//127
f 62//80 167//83 103//127
f 65//85 107//130 105//126
f 65//85 105//126 167//83
f 101//125 27//39 107//130
f 67//89 66//88 65//85
f 67//89 65//85 64//84
f 67//89 64//84 75//97
f 75//97 64//84 63//82
f 62//80 103//127 166//81
f 63//82 62//80 76//98
f 76//98 62//80 77//99
f 61//79 166//81 41//184
f 60//78 58//77 78//100
f 60//78 78//100 77//99
f 60//78 77//99 62//80
f 200//185 78//100 58//77
f 57//186 79//101 78//100
f 57//186 78//100 200//185
f 57//186 199//187 81//103
f 57//186 81//103 79//101
f 56//106 81//103 199//187
f 56//106 83//104 81//103
f 84//75 55//73 54//69
f 52//67 48//63 83//104
f 52//67 83//104 54//69
f 51//66 52//67 53//68
f 50//65 48//63 52//67
f 80//62 45//56 46//59
f 44//58 43//57 76//98
f 43//57 42//188 75//97
f 42//188 74//108 73//96
f 42//188 73//96 75//97
f 165//53 190//55 192//189
f 39//190 117//54 116//139
f 39//190 116//139 118//140
f 39//190 118//140 120//142
f 189//191 120//142 121//143
f 189//191 121//143 188//192
f 188//192 121//143 123//144
f 127//49 123//144 122//145
f 125//147 185//193 126//50
f 125//147 128//148 37//194
f 36//150 129//149 130//151
f 36//150 130//151 182//195
f 181//196 182//195 130//151
f 181//196 130//151 131//152
f 180//197 181//196 131//152
f 180//197 131//152 132//153
f 35//181 180//197 132//153
f 34//46 33//47 35//181
f 34//46 150//168 152//45
f 153//41 32//44 152//45
f 155//42 156//172 30//198
f 30//198 156//172 168//199
f 145//35 26//31 109//132
f 26//31 144//30 109//132
f 25//164 142//162 144//30
f 23//26 25//164 24//29
f 178//23 23//26 22//27
f 20//200 19//201 21//25
f 19//201 18//202 21//25
f 18//202 17//165 21//25
f 16//203 15//21 143//163
f 16//203 143//163 17//165
f 15//21 140//20 141//161
f 15//21 141//161 143//163
f 14//204 13//167 138//159
f 14//204 138//159 140//20
f 148//19 10//15 11//17
f 12//18 148//19 147//166
f 9//16 158//176 11//17
f 9//16 8//13 158//176
f 7//12 159//175 8//13
f 7//12 6//10 159//175
f 6//10 161//178 159//175
f 4//8 2//6 6//10
f 2//6 212//5 213//1
f 213//1 1//3 163//180
f 213//1 163//180 162//179
f 1//3 168//199 156//172
f 1//3 164//174 163//180
f 170//22 14//204 140//20
f 171//205 16//203 17//165
f 171//205 17//165 18//202
f 172//24 20//200 21//25
f 174//206 24//29 25//164
f 174//206 25//164 144//30
f 174//206 144//30 175//32
f 176//36 175//32 26//31
f 176//36 26//31 145//35
f 33//47 180//197 35//181
f 183//207 37//194 128//148
f 184//208 125//147 37//194
f 183//207 184//208 37//194
f 184//208 185//193 125//147
f 185//193 186//52 126//50
f 38//48 123//144 127//49
f 117//54 39//190 190//55
f 42//188 86//111 74//108
f 80//62 193//61 45//56
f 194//70 54//69 55//73
f 195//74 194//70 55//73
f 198//105 197//71 84//75
f 203//209 95//118 96//124
f 204//210 203//209 96//124
f 204//210 96//124 205//211
f 205//211 96//124 97//123
f 206//212 205//211 97//123
f 206//212 97//123 98//122
f 203//209 202//119 95//118
f 91//116 90//115 201//120
f 208//213 68//90 70//92
f 208//213 70//92 207//95
f 208//213 69//91 68//90
f 40//182 191//214 41//184
f 191//214 40//182 192//189
f 192//189 40//182 165//53
f 189//191 39//190 120//142
f 155//42 30//198 31//40
f 69//91 209//87 100//86
f 209//87 28//38 29//37
f 27//39 177//34 146//33
f 169//14 210//11 7//12
f 168//199 1//3 214//2
